# xmcd
#
# Track frame offsets: 
#        150
#        22984
#        46367
#        65383
#
# Disc length: 1212 seconds
#
# Revision: 1
# Processed by: cddbd v1.5.2PL0 Copyright (c) Steve Scherf et al.
# Submitted via: ExactAudioCopy v1.0b1
#
DISCID=2a04ba04
DTITLE=Powerdise - Shadowland
DYEAR=0
DGENRE=
TTITLE0=Dreams of a Thousand Lies
TTITLE1=Shadowland
TTITLE2=Upon a star
TTITLE3=Last Chapter
EXTD=
EXTT0=
EXTT1=
EXTT2=
EXTT3=
PLAYORDER=
